<?xml version="1.0" encoding="iso-8859-1"?>
<!-- Generator: Adobe Illustrator 18.1.1, SVG Export Plug-In . SVG Version: 6.00 Build 0)  -->
<svg version="1.1" id="Capa_1" xmlns="http://www.w3.org/2000/svg" xmlns:xlink="http://www.w3.org/1999/xlink" x="0px" y="0px"
	 viewBox="0 0 251.724 251.724" style="enable-background:new 0 0 251.724 251.724;" xml:space="preserve">
<g>
	<g>
		<path style="fill:#010002;" d="M191.856,56.685H59.875v129.404h131.981V56.685z M164.462,121.39
			c0,9.064-3.162,17.393-8.419,23.987l13.503,13.503l-8.437,8.437l-13.843-13.843c-6.134,4.105-13.491,6.504-21.409,6.504
			c-8.491,0-16.325-2.792-22.704-7.453l-13.921,13.921l-8.437-8.437l13.921-13.921c-4.666-6.379-7.453-14.213-7.453-22.704
			c0-8.36,2.703-16.087,7.232-22.412L81.66,86.138l8.437-8.437l12.763,12.763c6.432-4.797,14.374-7.673,22.996-7.673
			c8.932,0,17.149,3.079,23.694,8.198l12.417-12.417l8.437,8.437l-12.668,12.668C161.98,105.864,164.462,113.341,164.462,121.39z"/>
		<path style="fill:#010002;" d="M125.862,94.724c-14.702,0-26.66,11.964-26.66,26.666s11.958,26.66,26.66,26.66
			s26.666-11.958,26.666-26.66S140.565,94.724,125.862,94.724z"/>
		<path style="fill:#010002;" d="M2.372,0v242.774h51.536v8.95H83.67v-8.95h84.389v8.95h29.763v-8.95h51.53V0H2.372z
			 M203.789,198.023H47.941v-13.676h-8.915v-14.917h8.915V71.227h-8.915V56.309h8.915V44.752h155.849V198.023z"/>
	</g>
</g>
<g>
</g>
<g>
</g>
<g>
</g>
<g>
</g>
<g>
</g>
<g>
</g>
<g>
</g>
<g>
</g>
<g>
</g>
<g>
</g>
<g>
</g>
<g>
</g>
<g>
</g>
<g>
</g>
<g>
</g>
</svg>
